<svg xmlns="http://www.w3.org/2000/svg" width="68.986" height="79.288" viewBox="0 0 68.986 79.288">
  <defs>
    <style>
      .cls-1 {
        fill: none;
        stroke: red;
        stroke-linecap: round;
        stroke-width: 12px;
      }
    </style>
  </defs>
  <g id="Group_16" data-name="Group 16" transform="translate(-435.015 -620.015)">
    <path id="Subtraction_1" data-name="Subtraction 1" d="M-56.805-651.7a3.233,3.233,0,0,1-1.8-.6l-6.8-4.5-6,4a3.238,3.238,0,0,1-1.865.594A3.213,3.213,0,0,1-74.8-652.6a3.429,3.429,0,0,1-1.7-2.9v-61.783a2.455,2.455,0,0,1,1.865-2.421H-21.45a2.481,2.481,0,0,1,1.335,2.22v.6l.115.021v5.18l-.015,0v5.7l.015,0v5.2l-.015,0v5.7l.015,0v40.7a3.183,3.183,0,0,1-1.515,1.781,3.871,3.871,0,0,1-1.589.353,3.133,3.133,0,0,1-1.81-.553l-6-4-6.8,4.5a3.757,3.757,0,0,1-1.887.525,3.364,3.364,0,0,1-1.812-.525l-6.8-4.5-6.8,4.5A3,3,0,0,1-56.805-651.7Zm8.585-10.322a3.366,3.366,0,0,1,1.812.525l6.8,4.5,6.8-4.5a3.343,3.343,0,0,1,1.8-.525,3.343,3.343,0,0,1,1.8.525l4.2,2.831V-714.68H-71.6V-658.7l4.3-2.8a3.009,3.009,0,0,1,1.8-.6,3.238,3.238,0,0,1,1.8.6l6.8,4.5,6.8-4.5A3.755,3.755,0,0,1-48.22-662.019Zm13.32-7.073H-61.5a2.474,2.474,0,0,1-2.5-2.5,2.473,2.473,0,0,1,2.5-2.5h26.6a2.473,2.473,0,0,1,2.5,2.5A2.474,2.474,0,0,1-34.9-669.092Zm0-10.6H-61.5a2.474,2.474,0,0,1-2.5-2.5,2.474,2.474,0,0,1,2.5-2.5h26.6a2.474,2.474,0,0,1,2.5,2.5A2.474,2.474,0,0,1-34.9-679.689Zm-.71-8.6h-1.7a.685.685,0,0,1-.7-.7v-1.4a8.505,8.505,0,0,1-4.3-2.2.636.636,0,0,1-.1-.9l1.4-1.7c.054-.027.1-.053.143-.078a.657.657,0,0,1,.356-.121.761.761,0,0,1,.5.2,5.413,5.413,0,0,0,1.6,1,5.029,5.029,0,0,0,1.878.428,1.739,1.739,0,0,0,1.121-.328.9.9,0,0,0,.4-.8v-.3a.367.367,0,0,0-.1-.3l-.15-.15-.15-.15h0a.442.442,0,0,1-.209-.091c-.054-.033-.114-.071-.191-.109l-.573-.287-.028-.014a6.879,6.879,0,0,0-.792-.3l-.008,0a2.833,2.833,0,0,0-.4-.094,1.53,1.53,0,0,1-.4-.106,1.449,1.449,0,0,1-.48-.122c-.07-.026-.142-.052-.22-.078a4.893,4.893,0,0,1-.7-.3l-.5-.248-.025-.012-.079-.04a2.077,2.077,0,0,1-.3-.2,2.077,2.077,0,0,0-.3-.2,1.755,1.755,0,0,1-.5-.4,2.676,2.676,0,0,1-.5-.6l-.15-.3-.15-.3c-.021-.062-.042-.121-.061-.176a1.741,1.741,0,0,1-.138-.624,1.966,1.966,0,0,1-.1-.8,4.326,4.326,0,0,1,1.2-3.1,4.76,4.76,0,0,1,2.9-1.5v-1.4a.685.685,0,0,1,.7-.7h1.7a.685.685,0,0,1,.7.7v1.6a6.375,6.375,0,0,1,1.8.6l.437.262,1.063.638c.19.1.3.191.3.4a.443.443,0,0,1-.1.5l-1.3,1.7a.769.769,0,0,1-.53.21.664.664,0,0,1-.37-.109,5.1,5.1,0,0,0-3-1,1.806,1.806,0,0,0-1.1.3.905.905,0,0,0-.3.7.756.756,0,0,0,.4.7,7.079,7.079,0,0,0,1.262.538l.438.162c.4.1.7.2.99.3l.011,0,.9.3a3.661,3.661,0,0,0,.593.306c.075.032.145.063.206.093.045.022.095.045.147.068l.007,0a1.767,1.767,0,0,1,.546.329,2.641,2.641,0,0,0,.3.25,2.638,2.638,0,0,1,.3.25,2.641,2.641,0,0,1,.25.3,2.64,2.64,0,0,0,.25.3,1.6,1.6,0,0,1,.4.7,1.53,1.53,0,0,1,.106.4,2.857,2.857,0,0,0,.094.4,3.419,3.419,0,0,1,.1,1,4.4,4.4,0,0,1-1.2,3.2,4.759,4.759,0,0,1-2.9,1.5v1.3A.685.685,0,0,1-35.61-688.285Zm-12.59-2H-61.5a2.534,2.534,0,0,1-2.5-2.5,2.473,2.473,0,0,1,2.5-2.5h13.3a2.473,2.473,0,0,1,2.5,2.5A2.474,2.474,0,0,1-48.2-690.286Zm0-10.6H-61.5a2.534,2.534,0,0,1-2.5-2.5,2.474,2.474,0,0,1,2.5-2.5h13.3a2.474,2.474,0,0,1,2.5,2.5A2.474,2.474,0,0,1-48.2-700.883Z" transform="translate(524 1351)"/>
    <g id="Group_15" data-name="Group 15" transform="translate(86 34)">
      <line id="Line_6" data-name="Line 6" class="cls-1" x2="27" y2="27" transform="translate(357.5 594.5)"/>
      <line id="Line_7" data-name="Line 7" class="cls-1" x1="27" y2="27" transform="translate(357.5 594.5)"/>
    </g>
  </g>
</svg>
